<?xml version="1.0" encoding="utf-8"?><svg xmlns="http://www.w3.org/2000/svg" xmlns:xlink="http://www.w3.org/1999/xlink" width="1366" height="649" preserveAspectRatio="xMidYMid" viewBox="0 0 1366 649" style="z-index:1;margin-right:-2px;display:block;background-repeat-y:initial;background-repeat-x:initial;background-color:rgb(241, 242, 243);animation-play-state:paused" ><g transform="translate(683,324.5) scale(1,1) translate(-683,-324.5)" style="transform:matrix(1, 0, 0, 1, 0, 0);animation-play-state:paused" ><linearGradient id="lg-0.6379202043824252" x1="0" x2="1" y1="0" y2="0" style="animation-play-state:paused" ><stop stop-color="#ffb800" offset="0" style="animation-play-state:paused" ></stop>

  
<stop stop-color="#ffffff" offset="1" style="animation-play-state:paused" ></stop></linearGradient>
<path d="M 0 0 M 0 618.644 Q 136.6 596.834 273.2 595.402 T 546.4 553.201 T 819.6 483.799 T 1092.8 475.086 T 1366 456.29 L 1366 217.636 Q 1229.4 157.692 1092.8 155.836 T 819.6 160.138 T 546.4 75.4948 T 273.2 104.577 T 0 94.8998 Z" fill="url(#lg-0.6379202043824252)" opacity="0.4" style="opacity:0.4;animation-play-state:paused" ></path>
<path d="M 0 0 M 0 605.779 Q 136.6 573.656 273.2 567.617 T 546.4 564.769 T 819.6 528.61 T 1092.8 473.234 T 1366 462.431 L 1366 168.126 Q 1229.4 139.205 1092.8 135.699 T 819.6 167.919 T 546.4 122.591 T 273.2 81.1844 T 0 36.2175 Z" fill="url(#lg-0.6379202043824252)" opacity="0.4" style="opacity:0.4;animation-play-state:paused" ></path>
<path d="M 0 0 M 0 604.633 Q 136.6 578.388 273.2 573.176 T 546.4 501.364 T 819.6 490.745 T 1092.8 481.486 T 1366 472.499 L 1366 171.3 Q 1229.4 150.699 1092.8 149.236 T 819.6 141.006 T 546.4 102.165 T 273.2 99.3273 T 0 89.5252 Z" fill="url(#lg-0.6379202043824252)" opacity="0.4" style="opacity:0.4;animation-play-state:paused" ></path>
<path d="M 0 0 M 0 603.785 Q 136.6 569.41 273.2 564.22 T 546.4 533.779 T 819.6 525.974 T 1092.8 498.433 T 1366 486.991 L 1366 164.783 Q 1229.4 167.409 1092.8 160.331 T 819.6 146.561 T 546.4 88.615 T 273.2 116.09 T 0 67.1505 Z" fill="url(#lg-0.6379202043824252)" opacity="0.4" style="opacity:0.4;animation-play-state:paused" ></path></g></svg>