<?xml version="1.0" encoding="utf-8"?><svg xmlns="http://www.w3.org/2000/svg" xmlns:xlink="http://www.w3.org/1999/xlink" width="1366" height="649" preserveAspectRatio="xMidYMid" viewBox="0 0 1366 649" style="z-index:1;margin-right:-2px;display:block;background-repeat-y:initial;background-repeat-x:initial;background-color:rgb(255, 255, 255);animation-play-state:paused" ><g transform="translate(683,324.5) scale(1,1) translate(-683,-324.5)" style="transform:matrix(1, 0, 0, 1, 0, 0);animation-play-state:paused" ><linearGradient id="lg-0.6266410463742873" x1="0" x2="1" y1="0" y2="0" style="animation-play-state:paused" ><stop stop-color="#feba0b" offset="0" style="animation-play-state:paused" ></stop>

  
<stop stop-color="#ffffff" offset="1" style="animation-play-state:paused" ></stop></linearGradient>
<path d="M 0 0 M 0 551.502 Q 136.6 536.67 273.2 527.959 T 546.4 532.589 T 819.6 547.446 T 1092.8 474.892 T 1366 483.898 L 1366 201.107 Q 1229.4 159.209 1092.8 152.415 T 819.6 156.359 T 546.4 112.386 T 273.2 53.679 T 0 35.4714 Z" fill="url(#lg-0.6266410463742873)" opacity="0.4" style="opacity:0.4;animation-play-state:paused" ></path>
<path d="M 0 0 M 0 598.886 Q 136.6 585.884 273.2 583.259 T 546.4 549.098 T 819.6 545.278 T 1092.8 459.144 T 1366 466.842 L 1366 172.82 Q 1229.4 179.166 1092.8 173.722 T 819.6 142.373 T 546.4 97.3511 T 273.2 120.915 T 0 77.3645 Z" fill="url(#lg-0.6266410463742873)" opacity="0.4" style="opacity:0.4;animation-play-state:paused" ></path>
<path d="M 0 0 M 0 560.015 Q 136.6 573.781 273.2 568.824 T 546.4 521.832 T 819.6 533.674 T 1092.8 509.853 T 1366 448.682 L 1366 161.287 Q 1229.4 182.156 1092.8 177.001 T 819.6 134.119 T 546.4 108.293 T 273.2 72.7202 T 0 75.2083 Z" fill="url(#lg-0.6266410463742873)" opacity="0.4" style="opacity:0.4;animation-play-state:paused" ></path>
<path d="M 0 0 M 0 613.374 Q 136.6 581.797 273.2 578.652 T 546.4 550.621 T 819.6 527.119 T 1092.8 473.11 T 1366 438.091 L 1366 213.746 Q 1229.4 151.958 1092.8 149.024 T 819.6 134.603 T 546.4 120.59 T 273.2 92.4253 T 0 57.4504 Z" fill="url(#lg-0.6266410463742873)" opacity="0.4" style="opacity:0.4;animation-play-state:paused" ></path></g></svg>