<?xml version="1.0" encoding="utf-8"?><svg xmlns="http://www.w3.org/2000/svg" xmlns:xlink="http://www.w3.org/1999/xlink" width="1366" height="649" preserveAspectRatio="xMidYMid" viewBox="0 0 1366 649" style="z-index:1;margin-right:-2px;display:block;background-repeat-y:initial;background-repeat-x:initial;background-color:rgb(255, 255, 255);animation-play-state:paused" ><g transform="translate(683,324.5) scale(1,1) translate(-683,-324.5)" style="transform:matrix(1, 0, 0, 1, 0, 0);animation-play-state:paused" ><linearGradient id="lg-0.9275507433434846" x1="0" x2="1" y1="0" y2="0" style="animation-play-state:paused" ><stop stop-color="#feba0b" offset="0" style="animation-play-state:paused" ></stop>

  
<stop stop-color="#ffffff" offset="1" style="animation-play-state:paused" ></stop></linearGradient>
<path d="M 0 0 L 0 582.92 Q 136.6 582.473 273.2 542.869 T 546.4 473.969 T 819.6 393.88 T 1092.8 381.107 T 1366 251.291 L 1366 0 Z" fill="url(#lg-0.9275507433434846)" opacity="0.4" style="opacity:0.4;animation-play-state:paused" ></path>
<path d="M 0 0 L 0 619.296 Q 136.6 516.667 273.2 488.293 T 546.4 410.034 T 819.6 369.881 T 1092.8 327.952 T 1366 217.666 L 1366 0 Z" fill="url(#lg-0.9275507433434846)" opacity="0.4" style="opacity:0.4;animation-play-state:paused" ></path>
<path d="M 0 0 L 0 601.391 Q 136.6 548.425 273.2 526.516 T 546.4 441.204 T 819.6 458.111 T 1092.8 331.13 T 1366 305.958 L 1366 0 Z" fill="url(#lg-0.9275507433434846)" opacity="0.4" style="opacity:0.4;animation-play-state:paused" ></path>
<path d="M 0 0 L 0 618.934 Q 136.6 528.626 273.2 492.155 T 546.4 449.607 T 819.6 442.24 T 1092.8 360.593 T 1366 303.055 L 1366 0 Z" fill="url(#lg-0.9275507433434846)" opacity="0.4" style="opacity:0.4;animation-play-state:paused" ></path>
<path d="M 0 0 L 0 614.889 Q 136.6 534.647 273.2 513.767 T 546.4 472.236 T 819.6 387.319 T 1092.8 307.671 T 1366 320.563 L 1366 0 Z" fill="url(#lg-0.9275507433434846)" opacity="0.4" style="opacity:0.4;animation-play-state:paused" ></path></g></svg>