<svg fill="#000000" xmlns="http://www.w3.org/2000/svg"  viewBox="0 0 64 64" width="512px" height="512px"><path d="M 36 13 C 30.949219 13 26.28125 15.757813 23.8125 20.109375 C 22.320313 19.378906 20.679688 19 19 19 C 12.929688 19 8 23.929688 8 30 L 8 30.199219 C 3.378906 31.121094 0 35.179688 0 40 C 0 45.511719 4.488281 50 10 50 L 14.519531 50 C 15.75 53.488281 19.089844 56 23 56 L 55.5 56 C 60.191406 56 64 52.191406 64 47.5 C 64 43.71875 61.488281 40.410156 57.929688 39.347656 C 57.429688 35.109375 54.160156 31.769531 50 31.121094 L 50 27 C 50 19.28125 43.71875 13 36 13 Z M 36 15 C 42.621094 15 48 20.378906 48 27 L 48 31.019531 C 46.398438 31.097656 44.839844 31.589844 43.480469 32.4375 C 41.53125 29.097656 37.929688 27 34 27 C 27.929688 27 23 31.929688 23 38 C 18.039063 38 14 42.039063 14 47 C 14 47.339844 14.019531 47.671875 14.0625 48 L 10 48 C 5.589844 48 2 44.410156 2 40 C 2 35.890625 5.082031 32.46875 9.148438 32.039063 C 9.699219 31.988281 10.089844 31.511719 10.050781 30.960938 C 10.019531 30.652344 10 30.328125 10 30 C 10 25.039063 14.039063 21 19 21 C 20.671875 21 22.300781 21.460938 23.699219 22.328125 C 23.949219 22.480469 24.238281 22.519531 24.519531 22.4375 C 24.789063 22.359375 25.011719 22.160156 25.140625 21.902344 C 27.101563 17.710938 31.359375 15 36 15 Z M 34 29 C 37.550781 29 40.769531 31.089844 42.210938 34.328125 C 42.332031 34.609375 42.582031 34.820313 42.890625 34.890625 C 43.191406 34.96875 43.511719 34.890625 43.75 34.6875 C 44.960938 33.710938 46.449219 33.121094 48 33.019531 C 48.160156 33.007813 48.328125 33 48.5 33 C 49.011719 33 49.519531 33.050781 50 33.152344 C 53.328125 33.820313 55.851563 36.667969 55.988281 40.1875 C 56.011719 40.648438 56.339844 41.039063 56.789063 41.128906 C 59.808594 41.742188 62 44.421875 62 47.5 C 62 51.078125 59.078125 54 55.5 54 L 23 54 C 20.210938 54 17.800781 52.359375 16.679688 50 C 16.378906 49.378906 16.171875 48.710938 16.078125 48 C 16.019531 47.671875 16 47.339844 16 47 C 16 43.140625 19.140625 40 23 40 C 23.339844 40 23.640625 40.019531 23.921875 40.0625 C 24.230469 40.109375 24.539063 40 24.761719 39.789063 C 24.980469 39.570313 25.089844 39.257813 25.050781 38.949219 C 25.019531 38.640625 25 38.320313 25 38 C 25 33.039063 29.039063 29 34 29 Z M 7 42 C 6.445313 42 6 42.445313 6 43 L 6 45 C 6 45.554688 6.445313 46 7 46 C 7.554688 46 8 45.554688 8 45 L 8 43 C 8 42.445313 7.554688 42 7 42 Z M 12 42 C 11.445313 42 11 42.445313 11 43 L 11 45 C 11 45.554688 11.445313 46 12 46 C 12.554688 46 13 45.554688 13 45 L 13 43 C 13 42.445313 12.554688 42 12 42 Z M 21 48 C 20.445313 48 20 48.445313 20 49 L 20 51 C 20 51.554688 20.445313 52 21 52 C 21.554688 52 22 51.554688 22 51 L 22 49 C 22 48.445313 21.554688 48 21 48 Z M 26 48 C 25.445313 48 25 48.445313 25 49 L 25 51 C 25 51.554688 25.445313 52 26 52 C 26.554688 52 27 51.554688 27 51 L 27 49 C 27 48.445313 26.554688 48 26 48 Z M 31 48 C 30.445313 48 30 48.445313 30 49 L 30 51 C 30 51.554688 30.445313 52 31 52 C 31.554688 52 32 51.554688 32 51 L 32 49 C 32 48.445313 31.554688 48 31 48 Z M 36 48 C 35.445313 48 35 48.445313 35 49 L 35 51 C 35 51.554688 35.445313 52 36 52 C 36.554688 52 37 51.554688 37 51 L 37 49 C 37 48.445313 36.554688 48 36 48 Z M 41 48 C 40.445313 48 40 48.445313 40 49 L 40 51 C 40 51.554688 40.445313 52 41 52 C 41.554688 52 42 51.554688 42 51 L 42 49 C 42 48.445313 41.554688 48 41 48 Z M 46 48 C 45.445313 48 45 48.445313 45 49 L 45 51 C 45 51.554688 45.445313 52 46 52 C 46.554688 52 47 51.554688 47 51 L 47 49 C 47 48.445313 46.554688 48 46 48 Z M 51 48 C 50.445313 48 50 48.445313 50 49 L 50 51 C 50 51.554688 50.445313 52 51 52 C 51.554688 52 52 51.554688 52 51 L 52 49 C 52 48.445313 51.554688 48 51 48 Z M 56 48 C 55.445313 48 55 48.445313 55 49 L 55 51 C 55 51.554688 55.445313 52 56 52 C 56.554688 52 57 51.554688 57 51 L 57 49 C 57 48.445313 56.554688 48 56 48 Z"/></svg>